<?xml version="1.0" standalone="no"?><!DOCTYPE svg PUBLIC "-//W3C//DTD SVG 1.1//EN" "http://www.w3.org/Graphics/SVG/1.1/DTD/svg11.dtd"><svg t="1621673353090" class="icon" viewBox="0 0 1100 1024" version="1.1" xmlns="http://www.w3.org/2000/svg" p-id="4260" xmlns:xlink="http://www.w3.org/1999/xlink" width="214.84375" height="200"><defs><style type="text/css"></style></defs><path d="M570.08860932 676.79417055c0 2.934677 1.38730201 4.375337 3.40422499 6.466961 2.742589 2.838633 5.805325 6.018756 9.20955001 10.244691 2.42244199 2.99870599 11.11975799 12.752505 21.21504599 24.05367901l-0.06402899 0.06402999c22.303545 24.982105 50.80726199 56.922061 53.037616 68.746141 3.20146601 17.074484-0.33081801 39.92227799-4.151234 64.637594-2.72124599 17.586719-5.623908 36.283279-5.623908 52.09852 0 8.846717 0.352161 15.527109 1.568718 15.527109 3.073407 0 26.19866199-10.24469001 40.5519-16.615608 3.29750999-1.451331 5.91204-2.61452999 11.173115-4.791527 13.574215-5.602565 23.722861-10.24469001 31.694512-13.873018 20.27595001-9.29492201 30.115121-13.78764601 45.759617-12.805863 13.339441 0.843053 23.765548 5.655923 43.913439 14.940174 11.82408 5.453163 27.585963 12.720491 47.915271 21.119002h0.11738699l3.20146601 1.323273c8.334483 3.48959799 14.801443 6.200172 22.154143 3.85243 9.903201-3.20146601 5.229061-39.655489 1.803492-66.451758-0.81103801-6.402932-1.622076-12.64578999-1.96356501-16.007329-0.23477401-2.379756-1.067155-8.857389-1.73946299-14.470625-2.04893801-16.861053-2.966692-24.27778199 1.963565-36.080519h-0.05335801c3.521612-8.409183 7.896949-13.093995 15.64449701-21.407135 5.19704601-5.59189401 12.677804-13.616901 23.018538-26.529479l0.779024-0.896411 37.137003-42.227333 0.89640999-1.003126a33.412631 33.412631 0 0 0 5.335776-7.128597 17.554704 17.554704 0 0 0 1.152528-2.582516v-1.408645a11.845423 11.845423 0 0 0-2.35841299-1.067155h-0.106716a65.331245 65.331245 0 0 0-9.390966-2.187668c-2.763932-0.512235-5.63458-1.067155-8.65462901-1.728792l-15.10024699-3.201466c-32.153388-6.797779-89.566341-18.909991-101.19833301-30.691385l-2.35841299-2.401099-1.782149-2.977363-57.626384-96.289419-0.106716-0.213431a25.89985799 25.89985799 0 0 0-5.165031-6.520319l-0.096044-0.074701h-1.17387101l-0.096044 0.074701a25.61172601 25.61172601 0 0 0-5.15436 6.520319l-0.11738699 0.213431-48.021986 80.196717-3.201466 5.335777c-7.58747401 12.987279-10.938341 18.707232-21.34310501 24.54457-6.893823 3.86310201-12.592432 4.940929-22.69839299 6.819123-4.33265001 0.81103801-10.084617 1.888865-20.04117501 4.268621-3.020049 0.693651-5.645251 1.323273-20.63878299 4.727497q-10.596852 2.42244199-21.225718 4.67414l-40.28511101 9.401638-1.64341899 0.576264c-0.34148999 0.416191 0.52290599-0.106716 0.522906 1.163199zM85.60012233 931.03323955c-0.27746-9.604397-0.320147-22.41026-0.20276002-36.20857799 0.13873001-17.554704 0.61895001-35.963132 1.20588601-51.30882501 0.640293-15.932628 1.44066-28.994608 2.23035399-34.992021l1.333944-10.095288h0.11738701a449.699225 449.699225 0 0 1 10.09528899-47.627139 429.999539 429.999539 0 0 1 18.71790301-54.79842299 396.181389 396.181389 0 0 1 25.344938-50.15629701 358.713568 358.713568 0 0 1 31.374364-44.521717c11.183787-13.51018599 22.015413-25.483668 32.889725-36.347308a369.35310599 369.35310599 0 0 1 33.113828-29.34676999 391.645979 391.645979 0 0 1 36.123205-25.12083501c12.805863-7.939635 26.518808-15.60181001 41.555026-23.402714l2.518486-1.323273h0.160074q2.24102601-1.067155 4.524738-2.13430999c2.070281-0.928425 4.16190599-1.824835 6.26420099-2.66788901l0.36283301-0.13873c4.119219-1.707448 8.206424-3.404225 12.475045-5.538536l12.805863-6.488304-9.081491-11.162444a58.864284 58.864284 0 0 0-5.20771801-5.613236c-1.67543401-1.611404-4.172577-3.809744-6.90449399-6.232187-4.652797-4.06586199-10.25536201-9.01746201-16.348819-15.292335a191.650413 191.650413 0 0 1-19.689014-23.77621899 259.07328201 259.07328201 0 0 1-34.341056-68.05249101 236.908467 236.908467 0 0 1-4.75951301-131.035994 245.851228 245.851228 0 0 1 97.11112901-141.654188 237.826221 237.826221 0 0 1 65.405945-32.206746 247.65472 247.65472 0 0 1 147.470185 0.39484701 232.63984601 232.63984601 0 0 1 66.643846 33.95688099A241.283804 241.283804 0 0 1 680.80596633 107.42415555a251.29372 251.29372 0 0 1 32.01465799 48.576907 252.638336 252.638336 0 0 1 19.89177399 54.339546 244.645343 244.645343 0 0 1 6.87248 56.879375 234.325951 234.325951 0 0 1-11.439904 72.908047c-15.292335 46.80543001-36.731484 73.70841401-71.83022099 106.320678-41.16017801 32.825696-94.49659801 62.96216-159.006133 60.955909a348.66096599 348.66096599 0 0 0-72.84401801 8.035679 368.168564 368.168564 0 0 0-71.02985399 23.157269 350.74191801 350.74191801 0 0 0-64.029315 36.77417 298.47265399 298.47265399 0 0 0-51.383526 47.061547c-7.374043 8.611943-14.36391001 17.1812-21.012287 25.98523-6.509647 8.62261401-12.603104 17.373288-18.291041 26.508137a320.466724 320.466724 0 0 0-16.263446 29.474828 368.58475401 368.58475401 0 0 0-14.42793901 34.148968 327.392561 327.392561 0 0 0-11.20512999 39.420715c-3.28683799 14.55599801-6.15748599 30.445939-8.15306601 46.32521a394.708715 394.708715 0 0 0-3.20146599 42.942328 221.413373 221.413373 0 0 0 2.006252 34.960006l1.504689 34.469115c4.33265001 28.311629-56.644601 60.82784999-63.357008-5.63458zM317.33288633 244.14808655a127.69579799 127.69579799 0 0 0-1.15252802 16.743666 193.731365 193.731365 0 0 0 13.00862301 71.189927 176.720911 176.720911 0 0 0 37.894683 58.69354 182.024672 182.024672 0 0 0 28.08752599 23.477415 184.55383001 184.55383001 0 0 0 32.44152 17.480003 189.302671 189.302671 0 0 0 34.99202101 10.671553 183.21988601 183.21988601 0 0 0 36.123205 3.564298 175.941887 175.941887 0 0 0 123.89672601-50.465772 187.691267 187.691267 0 0 0 34.4371-45.684916 182.483549 182.483549 0 0 0 18.68588899-53.357763 176.45412201 176.45412201 0 0 0-15.26032099-109.639531 187.211047 187.211047 0 0 0-35.55761301-50.156297 178.407016 178.407016 0 0 0-87.50673101-47.883257 183.433317 183.433317 0 0 0-81.82946499 0.533578 181.277664 181.277664 0 0 0-38.417589 13.691602 178.332315 178.332315 0 0 0-48.726309 35.216123 185.14076601 185.14076601 0 0 0-34.853291 50.081597 166.988455 166.988455 0 0 0-6.92583799 17.191871c-2.134311 6.317559-4.15123399 12.955265-5.719952 19.518269a186.528067 186.528067 0 0 0-3.59631301 19.134094z m214.93574 478.757863c-11.58930601-11.994825-19.539613-20.27595001-19.53961301-46.111779 0-15.623153 4.503395-27.746037 12.47504501-37.457149h0.106716c7.619489-9.284251 17.437317-15.12158999 28.87722099-19.006035l1.46200301-0.490892 1.227228-0.288131 41.61905499-9.721785 0.672308-0.106715q10.511479-2.209011 20.990944-4.59944l20.190578-4.727497c8.761345-2.05961001 16.74366601-3.542955 22.73040701-4.663469 3.86310201-0.70432201 3.980489 0 5.00495799-0.533577 2.91333399-1.643419-1.99558 0 0.096044-3.532284l3.27616601-5.538536 0.106716-0.224103 48.02198599-80.196717a82.170955 82.170955 0 0 1 17.074485-20.862886 60.422331 60.422331 0 0 1 24.896732-13.072651l3.638999-0.896411h18.73924601l3.639 0.896411a60.475688 60.475688 0 0 1 24.87538899 13.072651 82.170955 82.170955 0 0 1 17.074484 20.862886l54.723722 91.220431c7.181955 1.71812 47.26430599 9.476339 71.061868 14.491968h0.106716c5.453163 1.152528 9.380295 1.984909 15.783226 3.425569 2.273041 0.512235 4.386008 0.90708201 6.402932 1.280586a118.112744 118.112744 0 0 1 17.437316 4.172577 64.392148 64.392148 0 0 1 26.94567101 17.074484 54.862452 54.862452 0 0 1 14.17182099 29.784304l0.33081901 2.369084v11.162444l-0.33081901 2.518487a68.84218599 68.84218599 0 0 1-7.76889 23.477415 90.814912 90.814912 0 0 1-14.353238 19.486255l-35.642986 40.5519c-11.738708 14.609355-19.923789 23.477416-25.611726 29.581544-3.28683799 3.532284-4.19392 3.20146601-4.67414 4.386008l-0.106715 0.117387c-1.067155 2.53982999 1.429988 0.384176 2.24102601 7.075239 0.320147 2.603859 0.736337 5.997413 1.73946299 15.591139 0.62962201 6.05076999 1.163199 10.191333 1.739463 14.64137 5.976069 46.720057 14.107792 110.33318199-41.245551 128.058631-27.468576 8.772016-42.248677 2.593187-61.350756-5.399806l-3.201465-1.333944c-23.253313-9.604397-38.58833401-16.668965-50.070925-21.962055-13.755631-6.328231-20.8949-9.604397-23.54144499-9.785814-1.451331-0.085372-6.989867 2.43311401-18.408428 7.662175-8.53724201 3.895117-19.358196 8.846717-33.71143501 14.7801l-9.8285 4.353993c-18.675217 8.25978199-48.640937 21.535193-63.677154 21.535194-45.951705 0-58.91764201-31.33167799-58.917642-72.876033 0-18.760589 3.361539-40.455856 6.509648-60.82785 3.020049-19.571627 5.837339-37.713267 4.386008-45.386113-0.682979-3.628328-21.812653-21.535193-39.420716-41.256222h-0.117387c-10.041931-11.237145-18.675217-20.905571-23.007867-26.284034-1.899536-2.379756-3.927131-4.460709-5.730624-6.328231z m41.117492-39.762205l0.106716 0.117387z m0 0" p-id="4261" fill="#666666"></path></svg>