<?xml version="1.0" standalone="no"?><!DOCTYPE svg PUBLIC "-//W3C//DTD SVG 1.1//EN" "http://www.w3.org/Graphics/SVG/1.1/DTD/svg11.dtd"><svg t="1621747940642" class="icon" viewBox="0 0 1024 1024" version="1.1" xmlns="http://www.w3.org/2000/svg" p-id="4767" xmlns:xlink="http://www.w3.org/1999/xlink" width="200" height="200"><defs><style type="text/css"></style></defs><path d="M1024 512c0-69.1-13.5-136.2-40.2-199.3C958 251.7 921 196.9 874 149.9c-47-47-101.8-83.9-162.7-109.7C648.2 13.5 581.1 0 512 0S375.8 13.5 312.7 40.2C251.7 66 197 102.9 150 149.9c-47 47-83.9 101.8-109.7 162.7C13.5 375.8 0 442.9 0 512c0 15.1 0.7 30.3 2 45.2 1.5 17.6 17.1 30.6 34.7 29.1s30.6-17.1 29.1-34.7C64.6 538.5 64 525.2 64 512 64 265 265 64 512 64s448 201 448 448c0 97.5-30.8 190.3-89.1 268.1-6.3 8.4-8 19.3-4.8 29.2l44.4 134.5-151.9-45.3c-8.4-2.5-17.4-1.5-25 2.9C666.5 939.7 589.8 960 512 960c-155.2 0-297.2-78.6-379.8-210.2-9.4-15-29.1-19.5-44.1-10.1S68.6 768.8 78 783.8c45.2 72.1 108.3 132.3 182.3 174.2 76.4 43.2 163.4 66 251.7 66 84.3 0 167.4-20.8 241.2-60.3l197.8 59c3 0.9 6.1 1.3 9.1 1.3 8.5 0 16.8-3.4 23-9.7 8.3-8.5 11.2-21 7.4-32.3L932 804.8c27.7-39.6 49.5-82.8 65-128.5 17.9-52.8 27-108.1 27-164.3z" fill="#ee7abb" p-id="4768"></path><path d="M92.4 669.2c-4.9-13.2-9.3-26.8-13-40.4-4.6-17.1-22.2-27.2-39.2-22.6-17.1 4.6-27.2 22.2-22.6 39.2 4.2 15.6 9.2 31.1 14.9 46.2 4.8 12.8 17 20.8 30 20.8 3.7 0 7.5-0.7 11.2-2 16.5-6.2 24.9-24.6 18.7-41.2zM622.7 288.6c-42.2 0-81.7 16.8-110.8 45.5-29-28.8-68.6-45.5-110.8-45.5-86.8 0-157.4 70.6-157.4 157.4v0.3c-0.3 41.9 13.5 86.4 41 132.3 20.9 34.9 49.9 71 86.1 107.1 60.7 60.6 120.9 100.8 123.4 102.5L512 800l17.7-11.8c2.5-1.7 62.4-41.9 122.9-102.5 36.1-36.2 65-72.2 86-107.1 27.5-45.9 41.5-90.3 41.5-132.1h-0.1v-0.6c0.1-86.7-70.5-157.3-157.3-157.3z m-14.5 351.2c-37.2 37.3-74.9 66.8-96.2 82.6-21.4-15.8-59.3-45.3-96.6-82.6-49.3-49.4-108-123-107.5-192.9v-0.8c0-51.5 41.9-93.4 93.4-93.4 34.7 0 66.3 19 82.6 49.7 8.3 15.6 27.6 21.6 43.3 13.3 6.6-3.5 11.4-9 14.3-15.3 16.6-29.5 47.6-47.7 81.4-47.7 51.5 0 93.4 41.9 93.4 93.4v1.3c-0.6 69.8-59 143.1-108.1 192.4z" fill="#ee7abb" p-id="4769"></path></svg>