<?xml version="1.0" standalone="no"?><!DOCTYPE svg PUBLIC "-//W3C//DTD SVG 1.1//EN" "http://www.w3.org/Graphics/SVG/1.1/DTD/svg11.dtd"><svg t="1621819253641" class="icon" viewBox="0 0 1024 1024" version="1.1" xmlns="http://www.w3.org/2000/svg" p-id="10102" xmlns:xlink="http://www.w3.org/1999/xlink" width="200" height="200"><defs><style type="text/css"></style></defs><path d="M798.72 76.8H947.2v145.92h51.2V25.6h-199.68zM947.2 801.28V947.2h-148.48v51.2H998.4v-197.12zM66.56 222.72V76.8h148.48V25.6H12.8v197.12zM215.04 947.2H66.56v-145.92H12.8V998.4h202.24z" fill="#ee7abb" p-id="10103"></path><path d="M537.6 458.24c20.48 0 40.96-7.68 56.32-23.04 30.72-30.72 30.72-81.92 0-112.64-15.36-15.36-35.84-23.04-56.32-23.04-20.48 0-40.96 7.68-56.32 23.04-30.72 30.72-30.72 81.92 0 112.64 12.8 15.36 33.28 23.04 56.32 23.04z m23.04-58.88c-5.12 7.68-15.36 10.24-23.04 10.24-7.68 0-17.92-2.56-23.04-10.24-12.8-12.8-12.8-33.28 0-46.08 5.12-5.12 15.36-10.24 23.04-10.24 7.68 0 17.92 2.56 23.04 10.24 12.8 15.36 12.8 35.84 0 46.08zM471.04 550.4c5.12 2.56 10.24 5.12 15.36 5.12 5.12 0 10.24-2.56 15.36-5.12l5.12-5.12c5.12-5.12 5.12-10.24 5.12-15.36 0-5.12-2.56-10.24-5.12-15.36l-107.52-102.4c-5.12 0-10.24-2.56-15.36-2.56-5.12 0-10.24 2.56-15.36 5.12l-5.12 5.12c-7.68 7.68-7.68 20.48 0 28.16l107.52 102.4zM396.8 650.24c7.68-7.68 7.68-20.48 0-28.16l-104.96-104.96c-5.12-5.12-10.24-5.12-15.36-5.12-5.12 0-10.24 2.56-15.36 5.12l-5.12 5.12c-7.68 7.68-7.68 20.48 0 28.16l104.96 104.96c5.12 5.12 10.24 5.12 15.36 5.12 5.12 0 10.24-2.56 15.36-5.12l5.12-5.12zM414.72 604.16c5.12 5.12 10.24 5.12 15.36 5.12s10.24-2.56 15.36-5.12l5.12-5.12c7.68-7.68 7.68-20.48 0-28.16l-104.96-104.96c-5.12-5.12-10.24-5.12-15.36-5.12-5.12 0-10.24 2.56-15.36 5.12l-5.12 5.12c-7.68 7.68-7.68 20.48 0 28.16l104.96 104.96zM890.88 593.92c-5.12-12.8-17.92-23.04-30.72-25.6l-99.84-15.36-43.52-87.04c-7.68-15.36-20.48-23.04-35.84-23.04-15.36 0-28.16 7.68-35.84 23.04l-43.52 89.6-99.84 15.36c-15.36 2.56-28.16 12.8-30.72 25.6-5.12 12.8-2.56 28.16 7.68 38.4l74.24 74.24-17.92 102.4c-2.56 15.36 5.12 28.16 15.36 35.84 5.12 2.56 12.8 5.12 20.48 5.12 7.68 0 12.8-2.56 17.92-5.12l87.04-46.08 87.04 46.08c5.12 2.56 12.8 5.12 17.92 5.12 10.24 0 15.36-2.56 23.04-7.68 12.8-7.68 17.92-23.04 15.36-38.4l-17.92-99.84 74.24-74.24c17.92-7.68 20.48-23.04 15.36-38.4zM599.04 716.8l2.56-23.04-15.36-15.36-64-64 87.04-12.8 25.6-2.56 10.24-20.48 38.4-79.36 38.4 76.8 10.24 20.48 25.6 2.56 87.04 12.8-64 61.44-20.48 17.92 2.56 23.04 15.36 87.04-76.8-40.96-20.48-7.68-20.48 10.24-74.24 40.96 12.8-87.04z" fill="#ee7abb" p-id="10104"></path><path d="M473.6 652.8L381.44 742.4h-2.56c-2.56 0-2.56 0-5.12-2.56l-204.8-202.24c-2.56-2.56-2.56-5.12-2.56-7.68l281.6-276.48 33.28-33.28h2.56l28.16 2.56 166.4 10.24c2.56 0 5.12 2.56 5.12 2.56s2.56 2.56 2.56 5.12l10.24 163.84 2.56 23.04c17.92 5.12 30.72 15.36 38.4 30.72l2.56 5.12c5.12-7.68 10.24-17.92 10.24-30.72l-12.8-192c0-15.36-7.68-28.16-17.92-38.4-10.24-10.24-25.6-17.92-38.4-17.92L486.4 174.08h-2.56c-17.92 0-28.16 7.68-38.4 17.92-7.68 2.56-302.08 289.28-312.32 302.08-10.24 10.24-15.36 23.04-15.36 38.4s7.68 28.16 17.92 38.4l204.8 202.24c12.8 10.24 28.16 17.92 43.52 17.92 12.8 0 25.6-5.12 35.84-12.8l89.6-89.6-35.84-35.84z" fill="#ee7abb" p-id="10105"></path><path d="M890.88 593.92c-5.12-12.8-17.92-23.04-30.72-25.6l-99.84-15.36-43.52-87.04c-7.68-15.36-20.48-23.04-35.84-23.04-15.36 0-28.16 7.68-35.84 23.04l-43.52 89.6-99.84 15.36c-15.36 2.56-28.16 12.8-30.72 25.6-5.12 12.8-2.56 28.16 7.68 38.4l74.24 74.24-17.92 102.4c-2.56 15.36 5.12 28.16 15.36 35.84 5.12 2.56 12.8 5.12 20.48 5.12 7.68 0 12.8-2.56 17.92-5.12l87.04-46.08 87.04 46.08c5.12 2.56 12.8 5.12 17.92 5.12 10.24 0 15.36-2.56 23.04-7.68 12.8-7.68 17.92-23.04 15.36-38.4l-17.92-99.84 74.24-74.24c17.92-7.68 20.48-23.04 15.36-38.4zM599.04 716.8l2.56-23.04-15.36-15.36-64-64 87.04-12.8 25.6-2.56 10.24-20.48 38.4-79.36 38.4 76.8 10.24 20.48 25.6 2.56 87.04 12.8-64 61.44-20.48 17.92 2.56 23.04 15.36 87.04-76.8-40.96-20.48-7.68-20.48 10.24-74.24 40.96 12.8-87.04z" fill="#ee7abb" p-id="10106"></path></svg>