<?xml version="1.0" standalone="no"?>
<!DOCTYPE svg PUBLIC "-//W3C//DTD SVG 1.1//EN" "http://www.w3.org/Graphics/SVG/1.1/DTD/svg11.dtd"><svg t="1621667838978"
  class="icon" viewBox="0 0 1025 1024" version="1.1" xmlns="http://www.w3.org/2000/svg" p-id="2721"
  xmlns:xlink="http://www.w3.org/1999/xlink" width="200.1953125" height="200">
  <defs>
    <style type="text/css"></style>
  </defs>
  <path
    d="M150.763585 149.277201C228.458731 71.58085 328.64784 21.186471 439.337987 5.287414c135.308159-19.419873 270.141899 15.047753 379.564118 97.011466 109.447505 81.988999 180.42613 201.681066 199.864065 337.013307 40.130551 279.4605-154.614846 539.36747-433.935669 579.524511-117.127314 16.805752-237.228778-7.736402-338.19815-69.037601-17.26813-10.499833-22.750439-32.997408-12.278301-50.241456 10.572079-17.138086 32.962489-22.776929 50.235435-12.280709 86.487551 52.567795 189.42203 73.589133 289.851962 59.157885 239.370888-34.33397 406.291729-257.164009 371.931269-496.728759-16.651626-115.990635-77.491651-218.56629-171.319453-288.817632-93.804923-70.279038-209.357262-99.782121-325.320203-83.106413C210.102086 112.123207 43.253491 334.979737 77.668136 574.49271c9.019982 62.700374 30.79148 121.294735 64.795524 174.115394 10.906821 17.017675 5.944687 39.717542-10.939333 50.5473-16.985165 10.936924-39.635662 6.022954-50.544892-10.938128C41.28718 726.450086 15.843149 658.087991 5.272274 584.885377c-19.422281-135.310567 15.020058-270.18043 97.063243-379.627936C117.255634 185.270433 133.440065 166.601924 150.763585 149.277201L150.763585 149.277201zM150.763585 149.277201M313.34 253.308623c2.998232-16.544461 15.027282-24.058102 36.123276-22.577047 18.061638 4.515409 27.092457 15.063406 27.092457 31.607866-9.030819 48.18845-16.580583 82.794548-22.577047 103.854419l0 365.748169c-1.517177 18.061638-12.065174 28.573511-31.607866 31.607866-21.095993-1.517177-31.607866-11.288524-31.607866-29.350162L290.762953 497.140735c-27.092457 15.063406-43.67304 8.290292-49.669504-20.319342 0-10.511873 4.515409-25.575279 13.546229-45.154095C278.697778 385.032148 298.276595 325.555174 313.34 253.308623zM455.575399 447.471231c-43.67304 4.515409-63.215733-11.288524-58.700324-47.4118l0-103.854419c-1.517177-31.607866 17.284988-47.4118 56.442619-47.4118l234.801294 0c36.123276-1.481055 53.408264 15.063406 51.927209 49.669504l0 101.596713c1.481055 34.642222-14.322879 50.446155-47.4118 47.4118l-94.823599 0 0 29.350162 149.008513 0c18.061638 1.517177 27.832985 12.805701 29.350162 33.865571-3.034356 19.578815-13.546229 29.350162-31.607866 29.350162l-130.946875 0c36.123276 48.18845 85.01613 94.823599 146.750808 139.977694 13.546229 13.546229 15.803933 26.315806 6.773114 38.38098-16.580583 18.061638-37.640454 18.061638-63.215733 0-28.609635-16.580583-63.992383-49.669504-106.112123-99.339009l0 110.627533c-1.517177 19.542692-12.065174 30.831216-31.607866 33.865571-22.577047 0-33.865571-9.807469-33.865571-29.350162l0-117.400646c-36.123276 49.669504-70.765498 84.275603-103.854419 103.854419-19.578815 13.546229-37.640454 12.769578-54.184913-2.257705-13.546229-12.065174-11.288524-26.315806 6.773114-42.89639 51.150559-40.638686 94.046948-85.79278 128.68917-135.462285l-103.854419 0c-22.577047 0-34.642222-10.511873-36.123276-31.607866 1.481055-19.542692 13.546229-30.090689 36.123276-31.607866l126.431466 0 0-29.350162L455.575399 447.471231zM462.348513 372.966974c-3.034356 12.065174 2.257705 16.580583 15.803933 13.546229l182.874085 0c9.030819 1.517177 13.546229-2.257705 13.546229-11.288524l0-51.927209c0-9.030819-4.515409-13.546229-13.546229-13.546229L478.152446 309.751241c-12.065174 0-17.32111 4.515409-15.803933 13.546229L462.348513 372.966974z"
    p-id="2722" fill="#4a4a4a"></path>
</svg>