<?xml version="1.0" standalone="no"?><!DOCTYPE svg PUBLIC "-//W3C//DTD SVG 1.1//EN" "http://www.w3.org/Graphics/SVG/1.1/DTD/svg11.dtd"><svg t="1623503172784" class="icon" viewBox="0 0 1024 1024" version="1.1" xmlns="http://www.w3.org/2000/svg" p-id="14004" xmlns:xlink="http://www.w3.org/1999/xlink" width="200" height="200"><defs><style type="text/css"></style></defs><path d="M963.35 736.33C949.62 660.68 912.59 632 882.83 609c-27.1-21-48.5-37.54-57-92.74-12.4-80.91-35.74-143.29-71.35-190.7a267.41 267.41 0 0 0-72.89-66.84c-29.09-18.1-63.13-31.57-101.17-40.06-44.57-10-87.8-11.35-128.45-4.17a285.7 285.7 0 0 0-100.92 38.57C283.77 294.65 248 354.21 235.75 377.89c-44 85-50 217.42 25.69 295.36 42.69 44 114.21 52.1 183.38 59.94 51.13 5.8 104 11.8 124.29 32.09 18.48 18.48 30.53 41.38 43.28 65.63 23.8 45.24 50.78 96.53 123.59 123.47a180.34 180.34 0 0 0 62.47 11.26 173.56 173.56 0 0 0 27.15-2.13A165.81 165.81 0 0 0 906.11 927c24.19-20.29 42.26-47.66 52.26-79.16 10.63-33.5 12.33-71.03 4.98-111.51zM865 878c-28.51 23.92-69.43 30.19-106.79 16.37-49.83-18.44-67.21-51.46-89.21-93.26-14.41-27.4-29.32-55.74-54.67-81.09C578.25 683.91 516.94 677 452 669.6c-58-6.57-117.93-13.37-144.67-40.92-58.19-60-43.67-165.55-14.78-221.37C305.29 382.75 369.3 274 504.54 274a284 284 0 0 1 62 7.13C681.58 306.79 740.22 380 762.6 526c12.34 80.46 50.44 110 81.06 133.65 26.47 20.49 47.37 36.67 56.72 88.16C910.59 804 898 850.27 865 878zM209.23 241.4a32 32 0 0 1-46.41-44.07c2.37-2.49 58.82-61.45 140.93-98.32C385.58 62.26 451.27 58.53 454 58.39a32 32 0 0 1 3.27 63.92c-0.48 0-57.12 3.55-127.33 35.08s-120.21 83.49-120.71 84.01z m-61 70a42 42 0 1 1-42-42 42 42 0 0 1 41.95 41.96z" fill="#3edbf0" p-id="14005"></path></svg>