<?xml version="1.0" standalone="no"?><!DOCTYPE svg PUBLIC "-//W3C//DTD SVG 1.1//EN" "http://www.w3.org/Graphics/SVG/1.1/DTD/svg11.dtd"><svg t="1623504778745" class="icon" viewBox="0 0 1024 1024" version="1.1" xmlns="http://www.w3.org/2000/svg" p-id="17107" xmlns:xlink="http://www.w3.org/1999/xlink" width="200" height="200"><defs><style type="text/css"></style></defs><path d="M687.3728 268.757333l-0.405333-5.3248-38.421334-101.290666a17.066667 17.066667 0 0 0-15.957333-11.008H166.4a17.066667 17.066667 0 0 0-17.066667 17.066666v606.0672a17.066667 17.066667 0 0 0 17.066667 17.066667h77.482667a17.066667 17.066667 0 0 1 17.024 15.778133l1.8176 23.995734c6.016 16.810667 20.373333 45.354667 57.288533 45.354666 36.910933 0 50.304-25.070933 57.019733-42.914133l2.372267-26.897067a17.066667 17.066667 0 0 1 16.9984-15.569066h231.159467a17.066667 17.066667 0 0 1 16.9856 15.402666l2.568533 26.244267c7.108267 18.304 24.149333 43.733333 56.896 43.733333 32.746667 0 48.836267-21.7216 56.610133-40.789333l3.157334-29.700267a17.066667 17.066667 0 0 1 17.083733-15.266133l76.6208 0.512a17.066667 17.066667 0 0 0 17.181867-17.066667V408.682667l-3.195734-1.262934-91.285333-47.044266c-42.6112-18.018133-76.1472-48.3328-92.8128-91.618134zM199.441067 855.573333l-29.482667-0.2432c-46.848-0.392533-84.625067-38.481067-84.625067-85.333333V172.462933c0-47.125333 38.203733-85.333333 85.333334-85.333333h460.932266a85.333333 85.333333 0 0 1 79.637334 54.677333l38.7072 109.090134a85.333333 85.333333 0 0 0 48.2688 48.704l86.4896 42.5216A85.333333 85.333333 0 0 1 938.666667 421.482667v348.5184c0 47.1296-38.203733 85.333333-85.333334 85.333333h-0.708266l-30.050134-0.251733c-19.0592 46.754133-64.964267 85.380267-118.562133 85.380266-54.370133 0-100.817067-37.576533-119.377067-85.376h-144.810666c-18.235733 48.430933-64.989867 85.376-119.812267 85.376-55.5776 0-102.8736-35.400533-120.571733-84.885333z" p-id="17108" fill="#646566"></path><path d="M544.512 492.727467L464.9728 407.594667a42.645333 42.645333 0 0 1-0.046933-0.085334c-11.746133-20.4288-17.506133-46.506667 2.9184-58.2528 20.488533-11.776 38.114133-4.753067 49.941333 15.709867l116.501333 127.735467 0.0512 0.085333A42.461867 42.461867 0 0 1 639.957333 516.266667c-1.0112 22.664533-19.712 40.7168-42.615466 40.704l-255.808-0.170667c-23.637333-0.0128-42.811733-10.619733-42.8672-34.257067v-0.128c0.017067-23.547733 19.114667-29.824 42.658133-29.806933l224.5248 0.119467h-21.333333z" p-id="17109" fill="#646566"></path></svg>