<?xml version="1.0" standalone="no"?><!DOCTYPE svg PUBLIC "-//W3C//DTD SVG 1.1//EN" "http://www.w3.org/Graphics/SVG/1.1/DTD/svg11.dtd"><svg t="1623502890135" class="icon" viewBox="0 0 1024 1024" version="1.1" xmlns="http://www.w3.org/2000/svg" p-id="10431" xmlns:xlink="http://www.w3.org/1999/xlink" width="200" height="200"><defs><style type="text/css"></style></defs><path d="M888.15616 187.35104a254.10048 254.10048 0 0 0-359.82336 0L336.64 379.392a26.0096 26.0096 0 0 0 36.74112 36.81792l191.6928-192.04608a202.65984 202.65984 0 0 1 286.34112 286.86336L509.44 853.632 167.47008 511.03232a202.752 202.752 0 0 1 245.42208-318.57664 26.01984 26.01984 0 0 0 26.27584-44.91776A254.7712 254.7712 0 0 0 130.72384 547.84l360.3456 361.0112a25.94304 25.94304 0 0 0 36.74112 0l360.3456-361.0112a255.53408 255.53408 0 0 0 0-360.48896z m-106.2144 247.87968a25.9328 25.9328 0 0 0 33.0752-16.0256 130.2016 130.2016 0 0 0-122.66496-172.88192 26.03008 26.03008 0 0 0 0 52.06528A78.13632 78.13632 0 0 1 765.952 402.08896a26.04032 26.04032 0 0 0 15.98976 33.14176z" fill="#ff8198" p-id="10432"></path></svg>