<?xml version="1.0" standalone="no"?><!DOCTYPE svg PUBLIC "-//W3C//DTD SVG 1.1//EN" "http://www.w3.org/Graphics/SVG/1.1/DTD/svg11.dtd"><svg t="1623504544160" class="icon" viewBox="0 0 1024 1024" version="1.1" xmlns="http://www.w3.org/2000/svg" p-id="15684" xmlns:xlink="http://www.w3.org/1999/xlink" width="200" height="200"><defs><style type="text/css"></style></defs><path d="M411.776 425.173333a21.674667 21.674667 0 0 1-3.968-0.426666 171.989333 171.989333 0 1 1 168.448-273.792 21.333333 21.333333 0 0 1-33.834667 26.026666 129.28 129.28 0 1 0-126.72 205.866667 21.333333 21.333333 0 0 1-3.925333 42.325333z" fill="#646566" p-id="15685"></path><path d="M642.56 576.128a192 192 0 1 1 192-192 192.213333 192.213333 0 0 1-192 192z m0-341.333333a149.333333 149.333333 0 1 0 149.333333 149.333333 149.504 149.504 0 0 0-149.333333-149.333333zM568.106667 789.333333a79.786667 79.786667 0 0 1-19.456-2.432l-152.405334-38.058666a21.333333 21.333333 0 0 1 10.325334-41.429334l152.448 38.058667a36.48 36.48 0 0 0 22.4-69.290667l-60.373334-24.149333a321.792 321.792 0 0 0-206.634666-10.581333l-186.538667 53.290666a21.333333 21.333333 0 0 1-11.733333-40.96l186.538666-53.333333a364.586667 364.586667 0 0 1 234.24 11.989333l60.330667 24.192a79.146667 79.146667 0 0 1 12.885333 140.373334 78.293333 78.293333 0 0 1-42.026666 12.330666z" fill="#646566" p-id="15686"></path><path d="M477.696 965.546667a174.634667 174.634667 0 0 1-67.669333-13.653334l-91.306667-38.144a129.194667 129.194667 0 0 0-99.669333-7.552l-68.949334 22.954667a21.333333 21.333333 0 0 1-13.525333-40.533333l68.949333-22.912a170.453333 170.453333 0 0 1 130.986667 9.301333l90.026667 37.546667a132.394667 132.394667 0 0 0 112.213333-4.650667l354.346667-183.637333a42.069333 42.069333 0 0 0-30.890667-77.781334L691.029333 695.466667a21.333333 21.333333 0 1 1-11.733333-41.002667l171.178667-48.938667a84.736 84.736 0 0 1 62.250666 156.714667l-354.304 183.637333a175.701333 175.701333 0 0 1-80.725333 19.712zM641.706667 479.786667a152.064 152.064 0 0 1-57.856-11.306667 21.333333 21.333333 0 0 1 16.213333-39.424 110.208 110.208 0 0 0 53.290667 7.381333c6.485333-1.109333 18.432-4.48 18.432-13.781333 0-5.717333 0-9.813333-33.792-17.92-24.576-5.930667-65.536-15.786667-65.536-58.197333 0-28.672 22.442667-57.6 72.618666-57.6a181.205333 181.205333 0 0 1 43.093334 6.186666 21.333333 21.333333 0 0 1-10.325334 41.386667c-41.642667-10.368-62.72-3.498667-62.72 10.026667 0 6.826667 7.338667 10.581333 32.768 16.682666 26.581333 6.4 66.56 16 66.56 59.434667a58.666667 58.666667 0 0 1-54.698666 55.936 136.96 136.96 0 0 1-18.090667 1.194667z" fill="#646566" p-id="15687"></path><path d="M642.816 330.154667a21.333333 21.333333 0 0 1-21.333333-21.333334V283.733333a21.333333 21.333333 0 0 1 42.666666 0v25.088a21.333333 21.333333 0 0 1-21.333333 21.333334zM642.816 505.856a21.333333 21.333333 0 0 1-21.333333-21.333333v-25.130667a21.333333 21.333333 0 1 1 42.666666 0v25.173333a21.333333 21.333333 0 0 1-21.333333 21.333334z" fill="#646566" p-id="15688"></path></svg>