<?xml version="1.0" standalone="no"?><!DOCTYPE svg PUBLIC "-//W3C//DTD SVG 1.1//EN" "http://www.w3.org/Graphics/SVG/1.1/DTD/svg11.dtd"><svg t="1623491934249" class="icon" viewBox="0 0 1024 1024" version="1.1" xmlns="http://www.w3.org/2000/svg" p-id="9089" xmlns:xlink="http://www.w3.org/1999/xlink" width="200" height="200"><defs><style type="text/css"></style></defs><path d="M735.053 2.183H288.945c-52.65 0-95.595 43.002-95.595 95.59v828.453c0 52.588 42.945 95.59 95.595 95.59h446.108c52.524 0 95.595-43.002 95.595-95.59V97.774c0-52.589-43.071-95.591-95.595-95.591zM384.54 49.978h254.92v31.864H384.54V49.978z m127.458 908.11c-35.222 0-63.729-28.563-63.729-63.726 0-35.161 28.506-63.726 63.73-63.726 35.1 0 63.73 28.565 63.73 63.726 0 35.163-28.63 63.727-63.73 63.727z m254.92-191.18H257.08v-637.27H766.92v637.27z" p-id="9090" fill="#ffffff"></path></svg>