<?xml version="1.0" standalone="no"?><!DOCTYPE svg PUBLIC "-//W3C//DTD SVG 1.1//EN" "http://www.w3.org/Graphics/SVG/1.1/DTD/svg11.dtd"><svg t="1623504714865" class="icon" viewBox="0 0 1024 1024" version="1.1" xmlns="http://www.w3.org/2000/svg" p-id="16855" xmlns:xlink="http://www.w3.org/1999/xlink" width="200" height="200"><defs><style type="text/css"></style></defs><path d="M960 172.8 550.4 6.4C531.2 0 512 0 492.8 6.4L76.8 172.8C51.2 179.2 32 211.2 32 236.8l0 486.4c0 25.6 12.8 51.2 38.4 64l416 224C492.8 1024 505.6 1024 518.4 1024s25.6 0 32-6.4l416-224c25.6-12.8 38.4-38.4 38.4-64L1004.8 236.8C1004.8 211.2 985.6 179.2 960 172.8zM512 51.2c0 0 6.4 0 6.4 0 0 0 6.4 0 6.4 0l396.8 160-102.4 57.6L422.4 83.2 512 51.2zM243.2 160 640 358.4l-121.6 64L115.2 211.2 243.2 160zM96 748.8c-6.4-6.4-12.8-12.8-12.8-19.2L83.2 243.2l416 217.6 0 499.2L96 748.8zM960 729.6c0 6.4-6.4 19.2-12.8 19.2l-403.2 217.6L544 460.8l128-64 0 160c0 19.2 19.2 32 38.4 19.2l128-64c6.4-6.4 12.8-12.8 12.8-19.2l0-192L960 243.2 960 729.6z" p-id="16856" fill="#646566"></path></svg>