<?xml version="1.0" standalone="no"?><!DOCTYPE svg PUBLIC "-//W3C//DTD SVG 1.1//EN" "http://www.w3.org/Graphics/SVG/1.1/DTD/svg11.dtd"><svg t="1622167527152" class="icon" viewBox="0 0 1024 1024" version="1.1" xmlns="http://www.w3.org/2000/svg" p-id="23720" xmlns:xlink="http://www.w3.org/1999/xlink" width="200" height="200"><defs><style type="text/css"></style></defs><path d="M907.636364 69.818182c-4.654545-13.963636-13.963636-18.618182-27.927273-18.618182H139.636364c-13.963636 0-23.272727 9.309091-27.927273 18.618182L0 377.018182v9.309091c0 65.163636 37.236364 121.018182 97.745455 144.290909 9.309091 4.654545 18.618182 4.654545 32.581818 9.309091v414.254545c0 13.963636 9.309091 23.272727 23.272727 23.272727h721.454545c13.963636 0 23.272727-9.309091 23.272728-23.272727v-414.254545c9.309091 0 18.618182-4.654545 27.927272-9.309091 55.854545-23.272727 97.745455-79.127273 97.745455-144.290909v-4.654546l-116.363636-311.854545z m-74.472728 837.818182H195.490909v-377.018182c32.581818-9.309091 60.509091-27.927273 79.127273-51.2 27.927273 37.236364 74.472727 60.509091 121.018182 60.509091s93.090909-23.272727 121.018181-60.509091c27.927273 37.236364 74.472727 60.509091 121.018182 60.509091s93.090909-23.272727 121.018182-60.509091c18.618182 27.927273 41.890909 46.545455 74.472727 51.2v377.018182z m41.890909-432.872728c-46.545455 0-88.436364-37.236364-88.436363-88.436363v-9.309091h-65.163637v9.309091c0 46.545455-37.236364 88.436364-88.436363 88.436363-46.545455 0-88.436364-37.236364-88.436364-88.436363v-9.309091h-65.163636v9.309091c0 46.545455-37.236364 88.436364-88.436364 88.436363-46.545455 0-88.436364-37.236364-88.436363-88.436363v-9.309091H242.036364v9.309091c0 46.545455-37.236364 88.436364-88.436364 88.436363-46.545455 0-83.781818-37.236364-88.436364-83.781818l97.745455-274.618182h688.872727l97.745455 274.618182c4.654545 46.545455-32.581818 83.781818-74.472728 83.781818z" p-id="23721" fill="#ee7abb"></path></svg>