<?xml version="1.0" standalone="no"?><!DOCTYPE svg PUBLIC "-//W3C//DTD SVG 1.1//EN" "http://www.w3.org/Graphics/SVG/1.1/DTD/svg11.dtd"><svg t="1623641683959" class="icon" viewBox="0 0 1024 1024" version="1.1" xmlns="http://www.w3.org/2000/svg" p-id="35897" xmlns:xlink="http://www.w3.org/1999/xlink" width="200" height="200"><defs><style type="text/css"></style></defs><path d="M449.28 465.066667a120.32 120.32 0 1 1 120.32-120.32 120.32 120.32 0 0 1-120.32 120.32z m0-219.306667a98.986667 98.986667 0 1 0 98.986667 98.986667 98.986667 98.986667 0 0 0-98.986667-98.986667z" p-id="35898" fill="#646566"></path><path d="M751.36 896a28.16 28.16 0 0 0 14.08-3.84 29.013333 29.013333 0 0 0 10.666667-39.253333l-87.466667-151.893334 89.6-51.626666a23.893333 23.893333 0 0 0 8.96-33.28 24.746667 24.746667 0 0 0-33.28-9.386667l-89.6 51.626667-83.2-142.08a215.893333 215.893333 0 0 0 39.253333-302.933334 215.893333 215.893333 0 0 0-302.933333-39.253333 216.32 216.32 0 0 0-39.253333 302.933333 216.32 216.32 0 0 0 253.44 67.84l193.706666 337.066667a28.16 28.16 0 0 0 24.746667 14.08m0 42.666667a70.826667 70.826667 0 0 1-61.866667-35.413334L512 597.333333a259.413333 259.413333 0 0 1-322.133333-252.586666 259.413333 259.413333 0 1 1 445.44 180.053333l42.666666 75.52 52.48-30.293333a67.413333 67.413333 0 1 1 69.546667 115.2h-2.56l-52.48 30.293333 66.56 115.2A71.253333 71.253333 0 0 1 750.933333 938.666667z" p-id="35899" fill="#646566"></path></svg>